<?xml version="1.0" standalone="no"?>
<!DOCTYPE svg PUBLIC "-//W3C//DTD SVG 20010904//EN"
 "http://www.w3.org/TR/2001/REC-SVG-20010904/DTD/svg10.dtd">
<svg version="1.0" xmlns="http://www.w3.org/2000/svg"
 width="278.000000pt" height="101.000000pt" viewBox="0 0 278.000000 101.000000"
 preserveAspectRatio="xMidYMid meet">

<g transform="translate(0.000000,101.000000) scale(0.100000,-0.100000)"
fill="#000000" stroke="none">
<path d="M2234 625 c4 -11 -1 -15 -19 -15 -18 0 -37 -16 -72 -60 l-48 -60 -3
61 c-3 59 -4 60 -30 57 -27 -3 -27 -4 -30 -93 -2 -79 -4 -87 -15 -65 -8 15
-30 31 -57 41 -36 13 -45 21 -45 40 0 29 41 40 51 15 3 -9 17 -16 30 -16 33 0
31 33 -3 60 -55 43 -133 5 -133 -65 0 -38 23 -62 73 -76 43 -12 53 -34 27 -56
-11 -10 -20 -25 -20 -35 0 -34 64 -14 80 25 l9 22 0 -22 c1 -32 11 -29 44 12
15 19 31 35 35 35 4 0 22 -21 41 -45 28 -38 39 -45 68 -45 l35 0 -52 61 c-28
35 -49 68 -46 76 7 16 89 122 96 122 3 1 15 -17 27 -38 l23 -40 -28 -4 c-15
-2 29 -4 98 -4 69 0 110 2 92 4 l-32 4 27 47 c15 26 31 49 35 50 21 9 4 22
-29 22 -33 0 -35 -1 -19 -13 17 -12 17 -15 -5 -60 -22 -45 -25 -47 -64 -47
-40 0 -42 2 -65 51 -20 43 -22 52 -10 60 11 6 2 9 -29 9 -34 0 -42 -3 -37 -15z"/>
<path d="M1260 531 l0 -81 54 0 c57 0 90 -18 80 -45 -3 -8 -22 -15 -42 -17
-30 -2 -38 -8 -40 -25 -3 -21 1 -23 43 -23 35 0 51 6 70 25 30 29 32 54 5 88
-17 21 -18 26 -5 31 10 3 15 19 15 44 0 57 -25 76 -111 80 l-69 4 0 -81z m118
20 c8 -5 12 -17 10 -27 -2 -14 -13 -20 -41 -22 -35 -3 -37 -2 -37 27 0 27 3
31 28 31 15 0 33 -4 40 -9z"/>
<path d="M1490 495 c0 -96 -3 -115 -15 -115 -8 0 -15 -9 -15 -20 0 -18 7 -20
55 -20 48 0 55 2 55 20 0 11 -7 20 -15 20 -12 0 -15 19 -15 115 l0 115 -25 0
-25 0 0 -115z"/>
<path d="M1653 595 c-88 -38 -96 -189 -13 -238 36 -22 113 -22 146 -1 79 52
70 195 -15 239 -37 18 -76 19 -118 0z m112 -60 c70 -69 -16 -195 -93 -138 -33
24 -47 61 -38 97 16 65 86 87 131 41z"/>
<path d="M1697 493 c-15 -14 -7 -43 12 -43 26 0 36 17 21 35 -14 16 -23 19
-33 8z"/>
<path d="M280 595 c0 -3 5 -26 11 -51 10 -39 15 -45 33 -40 12 3 24 6 28 6 4
0 1 19 -6 43 -10 35 -17 43 -39 45 -15 2 -27 1 -27 -3z"/>
<path d="M404 554 c-7 -46 5 -69 31 -61 5 2 14 -6 20 -17 6 -12 20 -22 31 -24
21 -3 21 -3 5 70 -16 70 -18 73 -48 76 -31 3 -32 2 -39 -44z"/>
<path d="M536 527 c-10 -43 -16 -80 -13 -83 11 -11 37 11 37 32 0 24 1 24 108
26 79 1 89 3 40 5 l-68 4 0 40 0 41 50 -4 c28 -1 50 0 50 5 0 4 -35 7 -77 7
-60 0 -74 -3 -65 -12 7 -7 12 -27 12 -45 0 -28 -3 -33 -24 -33 -23 0 -25 5
-28 48 l-3 47 -19 -78z"/>
<path d="M860 593 c0 -5 18 -63 41 -130 l41 -123 35 0 c19 0 33 4 31 8 -1 5
-23 63 -48 130 -43 115 -46 122 -72 122 -16 0 -28 -3 -28 -7z"/>
<path d="M940 590 c0 -6 28 -10 63 -10 36 0 68 -5 75 -12 20 -20 14 -66 -13
-89 l-24 -22 31 -46 c37 -55 55 -71 82 -71 18 0 18 2 -6 28 -13 15 -35 41 -47
59 l-21 32 25 25 c32 32 32 60 0 91 -21 22 -33 25 -95 25 -40 0 -70 -4 -70
-10z"/>
<path d="M791 435 c-17 -47 -31 -88 -31 -91 0 -3 15 -4 33 -2 29 3 34 8 48 52
16 48 12 94 -11 119 -4 5 -22 -30 -39 -78z"/>
<path d="M317 483 c-3 -5 3 -38 12 -73 17 -61 20 -65 47 -65 27 0 29 4 43 63
13 55 13 65 0 73 -22 14 -28 11 -36 -18 l-7 -28 -6 25 c-6 25 -42 40 -53 23z"/>
<path d="M995 469 c-10 -15 1 -23 20 -15 9 3 13 10 10 16 -8 13 -22 13 -30 -1z"/>
<path d="M464 423 c3 -6 8 -28 12 -47 5 -31 10 -36 35 -36 26 0 30 5 40 45 10
38 15 45 35 45 20 0 24 -5 24 -33 0 -18 -5 -38 -12 -45 -9 -9 6 -12 69 -12 84
0 95 6 92 48 -1 10 -4 6 -8 -8 -6 -22 -13 -25 -59 -28 l-52 -3 0 40 0 40 68 4
c37 2 -4 3 -91 3 -116 -1 -156 -4 -153 -13z"/>
<path d="M2280 421 l65 -6 3 -45 c3 -33 -1 -47 -14 -57 -15 -11 -10 -13 36
-13 52 0 54 1 32 16 -22 15 -30 66 -14 91 4 6 34 14 67 16 33 2 -7 3 -90 3
-94 0 -126 -2 -85 -5z"/>
</g>
</svg>
